<mxfile host="www.draw.io" modified="2020-02-28T03:08:06.754Z" agent="Mozilla/5.0 (Macintosh; Intel Mac OS X 10_14_4) AppleWebKit/605.1.15 (KHTML, like Gecko) Version/12.1 Safari/605.1.15" etag="JIL1vJvOqi_FES8PsU1A" version="12.7.9" type="github">
  <diagram id="FnI3KrgoX1rfX9Rhpm_h" name="Page-1">
    <mxGraphModel dx="946" dy="1439" grid="0" gridSize="10" guides="1" tooltips="1" connect="1" arrows="1" fold="1" page="0" pageScale="1" pageWidth="827" pageHeight="1169" math="0" shadow="0">
      <root>
        <mxCell id="0" />
        <mxCell id="1" parent="0" />
        <mxCell id="rUJbT5kD02mlgZx--vGj-5" value="" style="rounded=0;whiteSpace=wrap;html=1;fontSize=10;dashed=1;gradientColor=none;fillColor=#ffffff;shadow=0;opacity=20;" parent="1" vertex="1">
          <mxGeometry x="103" y="-184" width="659" height="135" as="geometry" />
        </mxCell>
        <mxCell id="FP3JLc0hVjPUmgmEZtdx-23" value="" style="rounded=0;whiteSpace=wrap;html=1;fontSize=10;dashed=1;gradientColor=none;fillColor=#ffffff;shadow=0;opacity=20;" parent="1" vertex="1">
          <mxGeometry x="104" y="-442" width="659" height="251" as="geometry" />
        </mxCell>
        <mxCell id="FP3JLc0hVjPUmgmEZtdx-25" value="" style="rounded=0;whiteSpace=wrap;html=1;shadow=0;fillColor=#ffffff;gradientColor=none;fontSize=12;opacity=20;" parent="1" vertex="1">
          <mxGeometry x="114" y="-171" width="357" height="110" as="geometry" />
        </mxCell>
        <mxCell id="FP3JLc0hVjPUmgmEZtdx-24" value="数据平台" style="text;html=1;strokeColor=none;fillColor=none;align=center;verticalAlign=middle;whiteSpace=wrap;rounded=0;shadow=0;dashed=1;fontSize=14;opacity=20;" parent="1" vertex="1">
          <mxGeometry x="10" y="-346" width="93" height="20" as="geometry" />
        </mxCell>
        <mxCell id="FP3JLc0hVjPUmgmEZtdx-32" style="edgeStyle=orthogonalEdgeStyle;shape=link;rounded=0;orthogonalLoop=1;jettySize=auto;html=1;entryX=0;entryY=0.5;entryDx=0;entryDy=0;startArrow=classic;startFill=1;endArrow=none;endFill=0;fontSize=12;" parent="1" source="FP3JLc0hVjPUmgmEZtdx-27" target="FP3JLc0hVjPUmgmEZtdx-30" edge="1">
          <mxGeometry relative="1" as="geometry" />
        </mxCell>
        <mxCell id="FP3JLc0hVjPUmgmEZtdx-41" style="edgeStyle=orthogonalEdgeStyle;shape=link;rounded=0;orthogonalLoop=1;jettySize=auto;html=1;entryX=1;entryY=0.5;entryDx=0;entryDy=0;startArrow=classic;startFill=1;endArrow=none;endFill=0;fontSize=12;" parent="1" source="FP3JLc0hVjPUmgmEZtdx-27" target="FP3JLc0hVjPUmgmEZtdx-39" edge="1">
          <mxGeometry relative="1" as="geometry" />
        </mxCell>
        <mxCell id="FP3JLc0hVjPUmgmEZtdx-27" value="本地Agent" style="rounded=0;whiteSpace=wrap;html=1;shadow=0;fillColor=#1ba1e2;fontSize=12;strokeColor=#006EAF;fontColor=#ffffff;" parent="1" vertex="1">
          <mxGeometry x="267" y="-164.5" width="73" height="40" as="geometry" />
        </mxCell>
        <mxCell id="FP3JLc0hVjPUmgmEZtdx-28" value="应用指标" style="rounded=0;whiteSpace=wrap;html=1;shadow=0;fillColor=#f5f5f5;fontSize=12;strokeColor=#666666;fontColor=#333333;" parent="1" vertex="1">
          <mxGeometry x="156" y="-105.5" width="73" height="40" as="geometry" />
        </mxCell>
        <mxCell id="FP3JLc0hVjPUmgmEZtdx-29" value="日志数据" style="rounded=0;whiteSpace=wrap;html=1;shadow=0;fillColor=#f5f5f5;fontSize=12;strokeColor=#666666;fontColor=#333333;" parent="1" vertex="1">
          <mxGeometry x="229" y="-105.5" width="73" height="40" as="geometry" />
        </mxCell>
        <mxCell id="FP3JLc0hVjPUmgmEZtdx-30" value="安全加密" style="rounded=0;whiteSpace=wrap;html=1;shadow=0;fillColor=#1ba1e2;fontSize=12;strokeColor=#006EAF;fontColor=#ffffff;" parent="1" vertex="1">
          <mxGeometry x="383" y="-164.5" width="73" height="40" as="geometry" />
        </mxCell>
        <mxCell id="FP3JLc0hVjPUmgmEZtdx-36" style="edgeStyle=orthogonalEdgeStyle;shape=link;rounded=0;orthogonalLoop=1;jettySize=auto;html=1;exitX=0.5;exitY=1;exitDx=0;exitDy=0;startArrow=classic;startFill=1;endArrow=none;endFill=0;fontSize=12;" parent="1" source="FP3JLc0hVjPUmgmEZtdx-23" target="FP3JLc0hVjPUmgmEZtdx-23" edge="1">
          <mxGeometry relative="1" as="geometry" />
        </mxCell>
        <mxCell id="FP3JLc0hVjPUmgmEZtdx-39" value="数据建模" style="rounded=0;whiteSpace=wrap;html=1;shadow=0;fillColor=#1ba1e2;fontSize=12;strokeColor=#006EAF;fontColor=#ffffff;" parent="1" vertex="1">
          <mxGeometry x="151" y="-164.5" width="73" height="40" as="geometry" />
        </mxCell>
        <mxCell id="FP3JLc0hVjPUmgmEZtdx-42" value="系统指标" style="rounded=0;whiteSpace=wrap;html=1;shadow=0;fillColor=#f5f5f5;fontSize=12;strokeColor=#666666;fontColor=#333333;" parent="1" vertex="1">
          <mxGeometry x="302" y="-105.5" width="73" height="40" as="geometry" />
        </mxCell>
        <mxCell id="FP3JLc0hVjPUmgmEZtdx-44" value="数据接入层" style="rounded=0;whiteSpace=wrap;html=1;shadow=0;fillColor=#99FF99;fontSize=12;strokeColor=#82b366;" parent="1" vertex="1">
          <mxGeometry x="115" y="-237" width="638" height="43" as="geometry" />
        </mxCell>
        <mxCell id="FP3JLc0hVjPUmgmEZtdx-47" value="&lt;div&gt;&lt;br&gt;&lt;/div&gt;&lt;div&gt;&lt;br&gt;&lt;/div&gt;&lt;div&gt;数据模型&lt;/div&gt;&lt;div&gt;&lt;br&gt;&lt;/div&gt;&lt;div&gt;&lt;br&gt;&lt;/div&gt;&lt;div&gt;&lt;br&gt;&lt;/div&gt;&lt;div&gt;&lt;br&gt;&lt;/div&gt;&lt;div&gt;&lt;br&gt;&lt;/div&gt;&lt;div&gt;&lt;br&gt;&lt;/div&gt;" style="rounded=0;whiteSpace=wrap;html=1;shadow=0;fillColor=#ffffff;gradientColor=none;fontSize=12;opacity=20;align=center;" parent="1" vertex="1">
          <mxGeometry x="117.5" y="-336" width="248" height="88" as="geometry" />
        </mxCell>
        <mxCell id="FP3JLc0hVjPUmgmEZtdx-49" value="链路数据" style="rounded=0;whiteSpace=wrap;html=1;shadow=0;fillColor=#66FFB3;fontSize=12;strokeColor=#6c8ebf;" parent="1" vertex="1">
          <mxGeometry x="137" y="-304" width="52" height="41" as="geometry" />
        </mxCell>
        <mxCell id="FP3JLc0hVjPUmgmEZtdx-53" value="&lt;div&gt;&lt;br&gt;&lt;/div&gt;&lt;div&gt;&lt;br&gt;&lt;/div&gt;&lt;div&gt;数据治理&lt;/div&gt;&lt;div&gt;&lt;br&gt;&lt;/div&gt;&lt;div&gt;&lt;br&gt;&lt;/div&gt;&lt;div&gt;&lt;br&gt;&lt;/div&gt;&lt;div&gt;&lt;br&gt;&lt;/div&gt;&lt;div&gt;&lt;br&gt;&lt;/div&gt;&lt;div&gt;&lt;br&gt;&lt;/div&gt;" style="rounded=0;whiteSpace=wrap;html=1;shadow=0;fillColor=#ffffff;gradientColor=none;fontSize=12;opacity=20;align=center;" parent="1" vertex="1">
          <mxGeometry x="369" y="-336" width="249" height="88" as="geometry" />
        </mxCell>
        <mxCell id="FP3JLc0hVjPUmgmEZtdx-54" value="数据映射" style="rounded=0;whiteSpace=wrap;html=1;shadow=0;fillColor=#66FFB3;fontSize=12;strokeColor=#6c8ebf;" parent="1" vertex="1">
          <mxGeometry x="384.5" y="-304.5" width="73" height="40" as="geometry" />
        </mxCell>
        <mxCell id="FP3JLc0hVjPUmgmEZtdx-55" value="预处理" style="rounded=0;whiteSpace=wrap;html=1;shadow=0;fillColor=#66FFB3;fontSize=12;strokeColor=#6c8ebf;" parent="1" vertex="1">
          <mxGeometry x="456" y="-304.5" width="73" height="40" as="geometry" />
        </mxCell>
        <mxCell id="FP3JLc0hVjPUmgmEZtdx-61" value="&lt;div&gt;&lt;br&gt;&lt;/div&gt;&lt;div&gt;&lt;br&gt;&lt;/div&gt;&lt;div&gt;数据存储&lt;/div&gt;&lt;div&gt;&lt;br&gt;&lt;/div&gt;&lt;div&gt;&lt;br&gt;&lt;/div&gt;&lt;div&gt;&lt;br&gt;&lt;/div&gt;&lt;div&gt;&lt;br&gt;&lt;/div&gt;&lt;div&gt;&lt;br&gt;&lt;/div&gt;&lt;div&gt;&lt;br&gt;&lt;/div&gt;" style="rounded=0;whiteSpace=wrap;html=1;shadow=0;fillColor=#ffffff;gradientColor=none;fontSize=12;opacity=20;align=center;" parent="1" vertex="1">
          <mxGeometry x="117" y="-430" width="248" height="88" as="geometry" />
        </mxCell>
        <mxCell id="FP3JLc0hVjPUmgmEZtdx-62" value="Clickhouse" style="rounded=0;whiteSpace=wrap;html=1;shadow=0;fillColor=#66FFB3;fontSize=11;strokeColor=#6c8ebf;" parent="1" vertex="1">
          <mxGeometry x="117" y="-398" width="57" height="40" as="geometry" />
        </mxCell>
        <mxCell id="FP3JLc0hVjPUmgmEZtdx-63" value="Prometheus" style="rounded=0;whiteSpace=wrap;html=1;shadow=0;fillColor=#66FFB3;fontSize=11;strokeColor=#6c8ebf;" parent="1" vertex="1">
          <mxGeometry x="174" y="-398" width="63" height="40" as="geometry" />
        </mxCell>
        <mxCell id="FP3JLc0hVjPUmgmEZtdx-64" value="Elasicsearch" style="rounded=0;whiteSpace=wrap;html=1;shadow=0;fillColor=#66FFB3;fontSize=11;strokeColor=#6c8ebf;" parent="1" vertex="1">
          <mxGeometry x="237" y="-398" width="65" height="40" as="geometry" />
        </mxCell>
        <mxCell id="FP3JLc0hVjPUmgmEZtdx-65" value="&lt;div&gt;&lt;br&gt;&lt;/div&gt;&lt;div&gt;&lt;br&gt;&lt;/div&gt;&lt;div&gt;数据访问&lt;/div&gt;&lt;div&gt;&lt;br&gt;&lt;/div&gt;&lt;div&gt;&lt;br&gt;&lt;/div&gt;&lt;div&gt;&lt;br&gt;&lt;/div&gt;&lt;div&gt;&lt;br&gt;&lt;/div&gt;&lt;div&gt;&lt;br&gt;&lt;/div&gt;&lt;div&gt;&lt;br&gt;&lt;/div&gt;" style="rounded=0;whiteSpace=wrap;html=1;shadow=0;fillColor=#ffffff;gradientColor=none;fontSize=12;opacity=20;align=center;" parent="1" vertex="1">
          <mxGeometry x="369" y="-430" width="250" height="88" as="geometry" />
        </mxCell>
        <mxCell id="FP3JLc0hVjPUmgmEZtdx-66" value="数据管道" style="rounded=0;whiteSpace=wrap;html=1;shadow=0;fillColor=#66FFB3;fontSize=12;strokeColor=#6c8ebf;" parent="1" vertex="1">
          <mxGeometry x="384.5" y="-398.5" width="73" height="40" as="geometry" />
        </mxCell>
        <mxCell id="FP3JLc0hVjPUmgmEZtdx-67" value="开放API" style="rounded=0;whiteSpace=wrap;html=1;shadow=0;fillColor=#66FFB3;fontSize=12;strokeColor=#6c8ebf;" parent="1" vertex="1">
          <mxGeometry x="454.5" y="-398.5" width="73" height="40" as="geometry" />
        </mxCell>
        <mxCell id="FP3JLc0hVjPUmgmEZtdx-68" value="信息脱敏" style="rounded=0;whiteSpace=wrap;html=1;shadow=0;fillColor=#66FFB3;fontSize=12;strokeColor=#6c8ebf;" parent="1" vertex="1">
          <mxGeometry x="529" y="-304.5" width="73" height="40" as="geometry" />
        </mxCell>
        <mxCell id="FP3JLc0hVjPUmgmEZtdx-69" value="权限管理" style="rounded=0;whiteSpace=wrap;html=1;shadow=0;fillColor=#66FFB3;fontSize=12;strokeColor=#6c8ebf;" parent="1" vertex="1">
          <mxGeometry x="527.5" y="-398.5" width="73" height="40" as="geometry" />
        </mxCell>
        <mxCell id="FP3JLc0hVjPUmgmEZtdx-70" value="&lt;div&gt;&lt;br&gt;&lt;/div&gt;&lt;div&gt;&lt;br&gt;&lt;/div&gt;&lt;div&gt;智能分析&lt;/div&gt;&lt;div&gt;&lt;br&gt;&lt;/div&gt;&lt;div&gt;&lt;br&gt;&lt;/div&gt;&lt;div&gt;&lt;br&gt;&lt;/div&gt;&lt;div&gt;&lt;br&gt;&lt;/div&gt;&lt;div&gt;&lt;br&gt;&lt;/div&gt;&lt;div&gt;&lt;br&gt;&lt;/div&gt;&lt;div&gt;&lt;br&gt;&lt;/div&gt;&lt;div&gt;&lt;br&gt;&lt;/div&gt;&lt;div&gt;&lt;br&gt;&lt;/div&gt;&lt;div&gt;&lt;br&gt;&lt;/div&gt;&lt;div&gt;&lt;br&gt;&lt;/div&gt;&lt;div&gt;&lt;br&gt;&lt;/div&gt;&lt;div&gt;&lt;br&gt;&lt;/div&gt;" style="rounded=0;whiteSpace=wrap;html=1;shadow=0;fillColor=#ffffff;gradientColor=none;fontSize=12;opacity=20;align=center;" parent="1" vertex="1">
          <mxGeometry x="622" y="-430" width="133" height="182" as="geometry" />
        </mxCell>
        <mxCell id="FP3JLc0hVjPUmgmEZtdx-71" value="异常检测" style="rounded=0;whiteSpace=wrap;html=1;shadow=0;fillColor=#66FFB3;fontSize=12;strokeColor=#6c8ebf;" parent="1" vertex="1">
          <mxGeometry x="628" y="-398" width="121" height="34" as="geometry" />
        </mxCell>
        <mxCell id="FP3JLc0hVjPUmgmEZtdx-72" value="关联分析" style="rounded=0;whiteSpace=wrap;html=1;shadow=0;fillColor=#66FFB3;fontSize=12;strokeColor=#6c8ebf;" parent="1" vertex="1">
          <mxGeometry x="628" y="-364" width="121" height="34" as="geometry" />
        </mxCell>
        <mxCell id="FP3JLc0hVjPUmgmEZtdx-73" value="根因分析" style="rounded=0;whiteSpace=wrap;html=1;shadow=0;fillColor=#66FFB3;fontSize=12;strokeColor=#6c8ebf;" parent="1" vertex="1">
          <mxGeometry x="628" y="-330" width="121" height="31" as="geometry" />
        </mxCell>
        <mxCell id="FP3JLc0hVjPUmgmEZtdx-74" value="数据标记" style="rounded=0;whiteSpace=wrap;html=1;shadow=0;fillColor=#66FFB3;fontSize=12;strokeColor=#6c8ebf;" parent="1" vertex="1">
          <mxGeometry x="628" y="-300" width="121" height="33" as="geometry" />
        </mxCell>
        <mxCell id="FP3JLc0hVjPUmgmEZtdx-75" value="" style="rounded=0;whiteSpace=wrap;html=1;shadow=0;fillColor=#ffffff;gradientColor=none;fontSize=12;opacity=20;" parent="1" vertex="1">
          <mxGeometry x="476" y="-171" width="273" height="110" as="geometry" />
        </mxCell>
        <mxCell id="FP3JLc0hVjPUmgmEZtdx-76" value="外部应用" style="rounded=0;whiteSpace=wrap;html=1;shadow=0;fillColor=#1ba1e2;fontSize=12;strokeColor=#006EAF;fontColor=#ffffff;" parent="1" vertex="1">
          <mxGeometry x="481.5" y="-166" width="73" height="100" as="geometry" />
        </mxCell>
        <mxCell id="FP3JLc0hVjPUmgmEZtdx-77" value="外部数据推送" style="text;html=1;strokeColor=none;fillColor=none;align=center;verticalAlign=middle;whiteSpace=wrap;rounded=0;shadow=0;fontSize=12;opacity=20;" parent="1" vertex="1">
          <mxGeometry x="719" y="-126" width="30" height="20" as="geometry" />
        </mxCell>
        <mxCell id="FP3JLc0hVjPUmgmEZtdx-80" value="产品后台" style="text;html=1;strokeColor=none;fillColor=none;align=center;verticalAlign=middle;whiteSpace=wrap;rounded=0;shadow=0;dashed=1;fontSize=14;opacity=20;" parent="1" vertex="1">
          <mxGeometry x="21" y="-548.5" width="72" height="20" as="geometry" />
        </mxCell>
        <mxCell id="FP3JLc0hVjPUmgmEZtdx-81" value="" style="rounded=0;whiteSpace=wrap;html=1;fontSize=10;dashed=1;gradientColor=none;fillColor=#ffffff;shadow=0;opacity=20;" parent="1" vertex="1">
          <mxGeometry x="105" y="-638" width="657" height="191" as="geometry" />
        </mxCell>
        <mxCell id="FP3JLc0hVjPUmgmEZtdx-83" value="&lt;div&gt;&lt;br&gt;&lt;/div&gt;&lt;div&gt;&lt;br&gt;&lt;/div&gt;&lt;div&gt;&lt;br&gt;&lt;/div&gt;&lt;div&gt;&lt;br&gt;&lt;/div&gt;&lt;div&gt;&lt;br&gt;&lt;/div&gt;&lt;div&gt;&lt;br&gt;&lt;/div&gt;&lt;div&gt;主要监控&lt;br&gt;&lt;/div&gt;&lt;div&gt;&lt;br&gt;&lt;/div&gt;&lt;div&gt;&lt;br&gt;&lt;/div&gt;&lt;div&gt;&lt;br&gt;&lt;/div&gt;&lt;div&gt;&lt;br&gt;&lt;/div&gt;&lt;div&gt;&lt;br&gt;&lt;/div&gt;&lt;div&gt;&lt;br&gt;&lt;/div&gt;&lt;div&gt;&lt;br&gt;&lt;/div&gt;&lt;div&gt;&lt;br&gt;&lt;/div&gt;&lt;div&gt;&lt;br&gt;&lt;/div&gt;&lt;div&gt;&lt;br&gt;&lt;/div&gt;&lt;div&gt;&lt;br&gt;&lt;/div&gt;&lt;div&gt;&lt;br&gt;&lt;/div&gt;&lt;div&gt;&lt;br&gt;&lt;/div&gt;&lt;div&gt;&lt;br&gt;&lt;/div&gt;&lt;div&gt;&lt;br&gt;&lt;/div&gt;&lt;div&gt;&lt;br&gt;&lt;/div&gt;" style="rounded=0;whiteSpace=wrap;html=1;shadow=0;fillColor=#ffffff;gradientColor=none;fontSize=12;opacity=20;align=center;" parent="1" vertex="1">
          <mxGeometry x="114" y="-628" width="229" height="171" as="geometry" />
        </mxCell>
        <mxCell id="FP3JLc0hVjPUmgmEZtdx-84" value="应用监控" style="rounded=0;whiteSpace=wrap;html=1;shadow=0;fillColor=#ffcc99;fontSize=12;strokeColor=#36393d;" parent="1" vertex="1">
          <mxGeometry x="122.5" y="-581.5" width="73" height="40" as="geometry" />
        </mxCell>
        <mxCell id="FP3JLc0hVjPUmgmEZtdx-87" value="系统监控" style="rounded=0;whiteSpace=wrap;html=1;shadow=0;fillColor=#ffcc99;fontSize=12;strokeColor=#36393d;" parent="1" vertex="1">
          <mxGeometry x="195" y="-581.5" width="73" height="40" as="geometry" />
        </mxCell>
        <mxCell id="FP3JLc0hVjPUmgmEZtdx-88" value="业务监控" style="rounded=0;whiteSpace=wrap;html=1;shadow=0;fillColor=#ffcc99;fontSize=12;strokeColor=#36393d;" parent="1" vertex="1">
          <mxGeometry x="267" y="-581.5" width="73" height="40" as="geometry" />
        </mxCell>
        <mxCell id="FP3JLc0hVjPUmgmEZtdx-89" value="数据库监控&lt;span style=&quot;color: rgb(0 , 0 , 0) ; font-family: &amp;#34;helvetica&amp;#34; , &amp;#34;arial&amp;#34; , sans-serif ; font-size: 0px ; white-space: nowrap&quot;&gt;%3CmxGraphModel%3E%3Croot%3E%3CmxCell%20id%3D%220%22%2F%3E%3CmxCell%20id%3D%221%22%20parent%3D%220%22%2F%3E%3CmxCell%20id%3D%222%22%20value%3D%22%E5%BA%94%E7%94%A8%E7%9B%91%E6%8E%A7%22%20style%3D%22rounded%3D0%3BwhiteSpace%3Dwrap%3Bhtml%3D1%3Bshadow%3D0%3BfillColor%3D%23f0a30a%3BfontSize%3D12%3BstrokeColor%3D%23BD7000%3BfontColor%3D%23ffffff%3B%22%20vertex%3D%221%22%20parent%3D%221%22%3E%3CmxGeometry%20x%3D%22126%22%20y%3D%22-649.5%22%20width%3D%2273%22%20height%3D%2240%22%20as%3D%22geometry%22%2F%3E%3C%2FmxCell%3E%3C%2Froot%3E%3C%2FmxGraphModel%3E&lt;/span&gt;" style="rounded=0;whiteSpace=wrap;html=1;shadow=0;fillColor=#ffcc99;fontSize=12;strokeColor=#36393d;" parent="1" vertex="1">
          <mxGeometry x="122.5" y="-541.5" width="73" height="40" as="geometry" />
        </mxCell>
        <mxCell id="FP3JLc0hVjPUmgmEZtdx-90" value="中间件监控" style="rounded=0;whiteSpace=wrap;html=1;shadow=0;fillColor=#ffcc99;fontSize=12;strokeColor=#36393d;" parent="1" vertex="1">
          <mxGeometry x="195.5" y="-541.5" width="70.5" height="40" as="geometry" />
        </mxCell>
        <mxCell id="FP3JLc0hVjPUmgmEZtdx-91" value="可用性监控" style="rounded=0;whiteSpace=wrap;html=1;shadow=0;fillColor=#ffcc99;fontSize=12;strokeColor=#36393d;" parent="1" vertex="1">
          <mxGeometry x="267" y="-541.5" width="73" height="40" as="geometry" />
        </mxCell>
        <mxCell id="FP3JLc0hVjPUmgmEZtdx-99" value="告警&lt;br&gt;&lt;br&gt;&lt;br&gt;&lt;br&gt;&lt;br&gt;&lt;br&gt;&lt;br&gt;&lt;br&gt;&lt;br&gt;&lt;br&gt;&lt;br&gt;" style="rounded=0;whiteSpace=wrap;html=1;shadow=0;fillColor=#ffffff;gradientColor=none;fontSize=12;opacity=20;align=center;" parent="1" vertex="1">
          <mxGeometry x="348" y="-628" width="181" height="171" as="geometry" />
        </mxCell>
        <mxCell id="FP3JLc0hVjPUmgmEZtdx-101" value="实时计算" style="rounded=0;whiteSpace=wrap;html=1;shadow=0;fillColor=#ffcc99;fontSize=12;strokeColor=#36393d;" parent="1" vertex="1">
          <mxGeometry x="402.14" y="-593.5" width="73" height="30" as="geometry" />
        </mxCell>
        <mxCell id="FP3JLc0hVjPUmgmEZtdx-102" value="告警策略" style="rounded=0;whiteSpace=wrap;html=1;shadow=0;fillColor=#ffcc99;fontSize=12;strokeColor=#36393d;" parent="1" vertex="1">
          <mxGeometry x="401.64" y="-564" width="73" height="30" as="geometry" />
        </mxCell>
        <mxCell id="FP3JLc0hVjPUmgmEZtdx-103" value="告警推送" style="rounded=0;whiteSpace=wrap;html=1;shadow=0;fillColor=#ffcc99;fontSize=12;strokeColor=#36393d;" parent="1" vertex="1">
          <mxGeometry x="402.14" y="-534" width="74.22" height="30.5" as="geometry" />
        </mxCell>
        <mxCell id="FP3JLc0hVjPUmgmEZtdx-104" value="收敛聚合" style="rounded=0;whiteSpace=wrap;html=1;shadow=0;fillColor=#ffcc99;fontSize=12;strokeColor=#36393d;" parent="1" vertex="1">
          <mxGeometry x="402.14" y="-504" width="73" height="30" as="geometry" />
        </mxCell>
        <mxCell id="FP3JLc0hVjPUmgmEZtdx-105" value="运维服务&lt;br&gt;&lt;br&gt;&lt;br&gt;&lt;br&gt;&lt;br&gt;&lt;br&gt;&lt;br&gt;&lt;br&gt;&lt;br&gt;&lt;br&gt;&lt;br&gt;" style="rounded=0;whiteSpace=wrap;html=1;shadow=0;fillColor=#ffffff;gradientColor=none;fontSize=12;opacity=20;align=center;" parent="1" vertex="1">
          <mxGeometry x="535" y="-629" width="219" height="171" as="geometry" />
        </mxCell>
        <mxCell id="FP3JLc0hVjPUmgmEZtdx-106" value="产品UI" style="text;html=1;strokeColor=none;fillColor=none;align=center;verticalAlign=middle;whiteSpace=wrap;rounded=0;shadow=0;dashed=1;fontSize=14;opacity=20;" parent="1" vertex="1">
          <mxGeometry x="21" y="-681" width="72" height="20" as="geometry" />
        </mxCell>
        <mxCell id="FP3JLc0hVjPUmgmEZtdx-109" value="大屏" style="rounded=0;whiteSpace=wrap;html=1;shadow=0;fillColor=#f9f7ed;fontSize=14;strokeColor=#36393d;dashed=1;opacity=20;" parent="1" vertex="1">
          <mxGeometry x="543" y="-706" width="220" height="60" as="geometry" />
        </mxCell>
        <mxCell id="FP3JLc0hVjPUmgmEZtdx-112" value="手机APP" style="rounded=0;whiteSpace=wrap;html=1;shadow=0;fillColor=#f9f7ed;fontSize=14;strokeColor=#36393d;dashed=1;opacity=20;" parent="1" vertex="1">
          <mxGeometry x="323" y="-706" width="220" height="60" as="geometry" />
        </mxCell>
        <mxCell id="FP3JLc0hVjPUmgmEZtdx-113" value="网页Web" style="rounded=0;whiteSpace=wrap;html=1;shadow=0;fillColor=#f9f7ed;fontSize=14;strokeColor=#36393d;dashed=1;opacity=20;comic=0;" parent="1" vertex="1">
          <mxGeometry x="103" y="-706" width="220" height="60" as="geometry" />
        </mxCell>
        <mxCell id="FP3JLc0hVjPUmgmEZtdx-118" value="消息通知" style="rounded=0;whiteSpace=wrap;html=1;shadow=0;fillColor=#ffcc99;fontSize=11;strokeColor=#36393d;" parent="1" vertex="1">
          <mxGeometry x="649" y="-544" width="73" height="40" as="geometry" />
        </mxCell>
        <mxCell id="FP3JLc0hVjPUmgmEZtdx-119" value="知识图谱" style="rounded=0;whiteSpace=wrap;html=1;shadow=0;fillColor=#ffcc99;fontSize=11;strokeColor=#36393d;" parent="1" vertex="1">
          <mxGeometry x="576" y="-584" width="73" height="40" as="geometry" />
        </mxCell>
        <mxCell id="um3B2b6yP7-CS58X5cLj-2" value="指标数据" style="rounded=0;whiteSpace=wrap;html=1;shadow=0;fillColor=#66FFB3;fontSize=12;strokeColor=#6c8ebf;" parent="1" vertex="1">
          <mxGeometry x="189" y="-304" width="52" height="41" as="geometry" />
        </mxCell>
        <mxCell id="um3B2b6yP7-CS58X5cLj-3" value="日志数据" style="rounded=0;whiteSpace=wrap;html=1;shadow=0;fillColor=#66FFB3;fontSize=12;strokeColor=#6c8ebf;" parent="1" vertex="1">
          <mxGeometry x="240.5" y="-304" width="52" height="41" as="geometry" />
        </mxCell>
        <mxCell id="um3B2b6yP7-CS58X5cLj-4" value="配置数据" style="rounded=0;whiteSpace=wrap;html=1;shadow=0;fillColor=#66FFB3;fontSize=12;strokeColor=#6c8ebf;" parent="1" vertex="1">
          <mxGeometry x="292.5" y="-304" width="52" height="41" as="geometry" />
        </mxCell>
        <mxCell id="um3B2b6yP7-CS58X5cLj-5" value="系统信息" style="rounded=0;whiteSpace=wrap;html=1;shadow=0;fillColor=#f5f5f5;fontSize=12;strokeColor=#666666;fontColor=#333333;" parent="1" vertex="1">
          <mxGeometry x="375" y="-105.5" width="73" height="40" as="geometry" />
        </mxCell>
        <mxCell id="um3B2b6yP7-CS58X5cLj-6" value="" style="endArrow=classic;html=1;exitX=0.014;exitY=0.025;exitDx=0;exitDy=0;entryX=0.5;entryY=1;entryDx=0;entryDy=0;exitPerimeter=0;" parent="1" source="FP3JLc0hVjPUmgmEZtdx-42" target="FP3JLc0hVjPUmgmEZtdx-27" edge="1">
          <mxGeometry width="50" height="50" relative="1" as="geometry">
            <mxPoint x="280" y="-100" as="sourcePoint" />
            <mxPoint x="330" y="-150" as="targetPoint" />
          </mxGeometry>
        </mxCell>
        <mxCell id="um3B2b6yP7-CS58X5cLj-8" value="数据采集" style="text;html=1;strokeColor=none;fillColor=none;align=center;verticalAlign=middle;whiteSpace=wrap;rounded=0;shadow=0;dashed=1;fontSize=14;opacity=20;" parent="1" vertex="1">
          <mxGeometry x="20.5" y="-129.5" width="72" height="20" as="geometry" />
        </mxCell>
        <mxCell id="um3B2b6yP7-CS58X5cLj-10" value="主动采集" style="text;html=1;strokeColor=none;fillColor=none;align=center;verticalAlign=middle;whiteSpace=wrap;rounded=0;shadow=0;fontSize=12;opacity=20;" parent="1" vertex="1">
          <mxGeometry x="115" y="-126" width="30" height="20" as="geometry" />
        </mxCell>
        <mxCell id="um3B2b6yP7-CS58X5cLj-22" value="传化APM" style="text;html=1;strokeColor=none;fillColor=none;align=center;verticalAlign=middle;whiteSpace=wrap;rounded=0;fontSize=18;fontColor=#EA6B66;" parent="1" vertex="1">
          <mxGeometry x="356" y="-734" width="159" height="20" as="geometry" />
        </mxCell>
        <mxCell id="rUJbT5kD02mlgZx--vGj-3" value="智能服务" style="rounded=0;whiteSpace=wrap;html=1;shadow=0;fillColor=#ffcc99;fontSize=11;strokeColor=#36393d;" parent="1" vertex="1">
          <mxGeometry x="576" y="-544" width="73" height="40" as="geometry" />
        </mxCell>
        <mxCell id="rUJbT5kD02mlgZx--vGj-4" value="故障跟踪" style="rounded=0;whiteSpace=wrap;html=1;shadow=0;fillColor=#ffcc99;fontSize=11;strokeColor=#36393d;" parent="1" vertex="1">
          <mxGeometry x="649" y="-584" width="73" height="40" as="geometry" />
        </mxCell>
        <mxCell id="O21C3woltjZXz7sM-vyr-1" value="Web" style="rounded=0;whiteSpace=wrap;html=1;shadow=0;fillColor=#1ba1e2;fontSize=12;strokeColor=#006EAF;fontColor=#ffffff;" vertex="1" parent="1">
          <mxGeometry x="564" y="-165.5" width="73" height="100" as="geometry" />
        </mxCell>
        <mxCell id="O21C3woltjZXz7sM-vyr-2" value="移动端" style="rounded=0;whiteSpace=wrap;html=1;shadow=0;fillColor=#1ba1e2;fontSize=12;strokeColor=#006EAF;fontColor=#ffffff;" vertex="1" parent="1">
          <mxGeometry x="646" y="-165.5" width="73" height="100" as="geometry" />
        </mxCell>
      </root>
    </mxGraphModel>
  </diagram>
</mxfile>
